<svg width="532" height="215" viewBox="0 0 532 215" fill="none" xmlns="http://www.w3.org/2000/svg">
<rect x="0.434189" y="0.844666" width="530.612" height="194.736" rx="26.1376" fill="#D9D9D9" fill-opacity="0.06"/>
<path d="M45.0775 43.0382C45.0775 45.5601 44.6078 47.6684 43.6685 49.3633C42.7292 51.048 41.3661 52.3191 39.5794 53.1767C37.7926 54.0242 35.6383 54.4479 33.1164 54.4479H26.8985V32.0573H33.7903C36.108 32.0573 38.1091 32.4759 39.7938 33.3132C41.4784 34.1402 42.7802 35.3705 43.6991 37.0041C44.618 38.6275 45.0775 40.6388 45.0775 43.0382ZM41.2487 43.1454C41.2487 41.3076 40.9577 39.7965 40.3757 38.6122C39.804 37.4278 38.9566 36.5497 37.8335 35.978C36.7206 35.396 35.3473 35.105 33.7137 35.105H30.5741V51.3696H33.1777C35.8833 51.3696 37.9049 50.6804 39.2424 49.302C40.5799 47.9237 41.2487 45.8715 41.2487 43.1454ZM56.2881 37.1725C57.7991 37.1725 59.0958 37.484 60.1781 38.1068C61.2603 38.7296 62.0924 39.6127 62.6744 40.7563C63.2564 41.8998 63.5474 43.2679 63.5474 44.8607V46.7904H52.2296C52.2704 48.4342 52.7094 49.7002 53.5467 50.5885C54.3941 51.4768 55.5785 51.9209 57.0998 51.9209C58.182 51.9209 59.152 51.8188 60.0096 51.6146C60.8775 51.4002 61.7708 51.0888 62.6897 50.6804V53.6056C61.8423 54.0038 60.9796 54.2947 60.1015 54.4785C59.2234 54.6623 58.1718 54.7542 56.9466 54.7542C55.2824 54.7542 53.8172 54.4326 52.5512 53.7893C51.2954 53.1359 50.3101 52.166 49.5954 50.8795C48.8909 49.593 48.5387 47.9952 48.5387 46.0859C48.5387 44.1868 48.8603 42.5736 49.5035 41.2463C50.1467 39.919 51.0503 38.9082 52.2143 38.214C53.3782 37.5197 54.7361 37.1725 56.2881 37.1725ZM56.2881 39.8833C55.1547 39.8833 54.2358 40.2509 53.5314 40.986C52.8371 41.7211 52.4287 42.7983 52.3062 44.2175H60.0249C60.0147 43.37 59.8718 42.6196 59.5961 41.9661C59.3306 41.3127 58.9222 40.8022 58.3709 40.4346C57.8298 40.0671 57.1355 39.8833 56.2881 39.8833ZM74.4364 54.7542C72.8334 54.7542 71.4448 54.4428 70.2707 53.82C69.0965 53.1972 68.1929 52.2425 67.5599 50.9561C66.9269 49.6696 66.6104 48.036 66.6104 46.0553C66.6104 43.9928 66.9575 42.3082 67.6518 41.0013C68.3461 39.6944 69.3058 38.7296 70.531 38.1068C71.7664 37.484 73.1805 37.1725 74.7733 37.1725C75.7841 37.1725 76.6979 37.2746 77.5147 37.4788C78.3417 37.6728 79.0411 37.9128 79.6128 38.1987L78.5408 41.0779C77.918 40.8226 77.2798 40.6082 76.6264 40.4346C75.973 40.2611 75.3451 40.1743 74.7427 40.1743C73.7523 40.1743 72.9253 40.3938 72.2616 40.8328C71.6082 41.2719 71.1181 41.9253 70.7914 42.7932C70.4749 43.661 70.3166 44.7382 70.3166 46.0246C70.3166 47.2703 70.48 48.3219 70.8067 49.1795C71.1334 50.027 71.6184 50.6702 72.2616 51.1092C72.9049 51.538 73.6961 51.7524 74.6355 51.7524C75.5646 51.7524 76.3967 51.6401 77.1318 51.4155C77.8669 51.1909 78.5612 50.8999 79.2146 50.5426V53.6668C78.5714 54.0344 77.8822 54.305 77.1471 54.4785C76.412 54.6623 75.5084 54.7542 74.4364 54.7542ZM89.9505 37.1725C91.4616 37.1725 92.7582 37.484 93.8405 38.1068C94.9228 38.7296 95.7549 39.6127 96.3368 40.7563C96.9188 41.8998 97.2098 43.2679 97.2098 44.8607V46.7904H85.892C85.9328 48.4342 86.3719 49.7002 87.2091 50.5885C88.0565 51.4768 89.2409 51.9209 90.7622 51.9209C91.8444 51.9209 92.8144 51.8188 93.672 51.6146C94.5399 51.4002 95.4333 51.0888 96.3522 50.6804V53.6056C95.5047 54.0038 94.642 54.2947 93.7639 54.4785C92.8859 54.6623 91.8342 54.7542 90.609 54.7542C88.9448 54.7542 87.4797 54.4326 86.2136 53.7893C84.9578 53.1359 83.9725 52.166 83.2578 50.8795C82.5533 49.593 82.2011 47.9952 82.2011 46.0859C82.2011 44.1868 82.5227 42.5736 83.1659 41.2463C83.8092 39.919 84.7127 38.9082 85.8767 38.214C87.0406 37.5197 88.3986 37.1725 89.9505 37.1725ZM89.9505 39.8833C88.8172 39.8833 87.8983 40.2509 87.1938 40.986C86.4995 41.7211 86.0911 42.7983 85.9686 44.2175H93.6873C93.6771 43.37 93.5342 42.6196 93.2585 41.9661C92.9931 41.3127 92.5847 40.8022 92.0333 40.4346C91.4922 40.0671 90.7979 39.8833 89.9505 39.8833ZM120.427 37.1725C122.326 37.1725 123.756 37.6626 124.716 38.6428C125.686 39.623 126.17 41.1953 126.17 43.3598V54.4479H122.571V44.003C122.571 42.7166 122.321 41.7466 121.821 41.0932C121.321 40.4398 120.56 40.113 119.539 40.113C118.11 40.113 117.078 40.5725 116.445 41.4914C115.823 42.4001 115.511 43.7223 115.511 45.458V54.4479H111.912V44.003C111.912 43.1454 111.8 42.4307 111.575 41.8589C111.361 41.277 111.029 40.843 110.58 40.5572C110.131 40.2611 109.564 40.113 108.88 40.113C107.889 40.113 107.098 40.3377 106.506 40.7869C105.924 41.2361 105.505 41.8998 105.25 42.7778C104.995 43.6457 104.867 44.7126 104.867 45.9787V54.4479H101.268V37.4942H104.071L104.576 39.7761H104.775C105.123 39.1839 105.551 38.6989 106.062 38.3212C106.583 37.9332 107.159 37.6473 107.792 37.4635C108.425 37.2695 109.084 37.1725 109.768 37.1725C111.034 37.1725 112.101 37.3972 112.969 37.8464C113.837 38.2854 114.485 38.9593 114.914 39.868H115.19C115.721 38.9491 116.461 38.2701 117.41 37.8311C118.36 37.3921 119.366 37.1725 120.427 37.1725ZM134.793 30.6177V36.3609C134.793 37.0245 134.772 37.6779 134.732 38.3212C134.701 38.9542 134.67 39.4494 134.64 39.8067H134.793C135.252 39.0716 135.89 38.4539 136.707 37.9536C137.534 37.4431 138.591 37.1879 139.877 37.1879C141.889 37.1879 143.507 37.9281 144.732 39.4085C145.958 40.8788 146.57 43.0586 146.57 45.9481C146.57 47.8675 146.289 49.4807 145.728 50.7876C145.166 52.0945 144.375 53.0849 143.354 53.7587C142.343 54.4224 141.154 54.7542 139.786 54.7542C138.499 54.7542 137.458 54.5194 136.661 54.0497C135.875 53.5698 135.257 53.0134 134.808 52.3804H134.548L133.889 54.4479H131.194V30.6177H134.793ZM138.928 40.113C137.907 40.113 137.095 40.3172 136.493 40.7256C135.901 41.134 135.472 41.7466 135.206 42.5634C134.941 43.37 134.803 44.3961 134.793 45.6418V45.9634C134.793 47.8522 135.089 49.2969 135.681 50.2975C136.284 51.2981 137.376 51.7984 138.959 51.7984C140.214 51.7984 141.179 51.293 141.853 50.2822C142.527 49.2612 142.864 47.8012 142.864 45.9021C142.864 43.9826 142.527 42.5379 141.853 41.568C141.189 40.598 140.214 40.113 138.928 40.113ZM157.49 37.1725C159.001 37.1725 160.297 37.484 161.38 38.1068C162.462 38.7296 163.294 39.6127 163.876 40.7563C164.458 41.8998 164.749 43.2679 164.749 44.8607V46.7904H153.431C153.472 48.4342 153.911 49.7002 154.748 50.5885C155.596 51.4768 156.78 51.9209 158.301 51.9209C159.384 51.9209 160.354 51.8188 161.211 51.6146C162.079 51.4002 162.972 51.0888 163.891 50.6804V53.6056C163.044 54.0038 162.181 54.2947 161.303 54.4785C160.425 54.6623 159.373 54.7542 158.148 54.7542C156.484 54.7542 155.019 54.4326 153.753 53.7893C152.497 53.1359 151.512 52.166 150.797 50.8795C150.093 49.593 149.74 47.9952 149.74 46.0859C149.74 44.1868 150.062 42.5736 150.705 41.2463C151.348 39.919 152.252 38.9082 153.416 38.214C154.58 37.5197 155.938 37.1725 157.49 37.1725ZM157.49 39.8833C156.356 39.8833 155.438 40.2509 154.733 40.986C154.039 41.7211 153.63 42.7983 153.508 44.2175H161.227C161.216 43.37 161.073 42.6196 160.798 41.9661C160.532 41.3127 160.124 40.8022 159.573 40.4346C159.031 40.0671 158.337 39.8833 157.49 39.8833ZM177.399 37.1725C177.685 37.1725 177.997 37.1879 178.333 37.2185C178.67 37.2491 178.961 37.29 179.206 37.341L178.869 40.7103C178.655 40.6491 178.39 40.6031 178.073 40.5725C177.767 40.5419 177.491 40.5265 177.246 40.5265C176.603 40.5265 175.99 40.6337 175.408 40.8482C174.826 41.0524 174.311 41.3689 173.861 41.7977C173.412 42.2163 173.06 42.7421 172.805 43.3751C172.549 44.0082 172.422 44.7433 172.422 45.5805V54.4479H168.808V37.4942H171.625L172.116 40.4806H172.284C172.621 39.8782 173.04 39.3269 173.54 38.8266C174.04 38.3263 174.612 37.9281 175.255 37.632C175.909 37.3257 176.623 37.1725 177.399 37.1725ZM185.976 50.8029L186.19 51.1552C186.006 51.8903 185.771 52.6816 185.486 53.529C185.2 54.3764 184.888 55.2239 184.551 56.0713C184.214 56.9289 183.872 57.7355 183.525 58.4911H180.891C181.105 57.664 181.31 56.7962 181.504 55.8875C181.708 54.989 181.892 54.1008 182.055 53.2227C182.229 52.3344 182.366 51.5278 182.469 50.8029H185.976ZM213.037 54.4479H197.875V51.7371L203.68 45.8562C204.803 44.7126 205.727 43.7274 206.452 42.9004C207.177 42.0631 207.713 41.2719 208.06 40.5265C208.417 39.7812 208.596 38.9695 208.596 38.0914C208.596 37.0092 208.285 36.1924 207.662 35.641C207.039 35.0795 206.217 34.7987 205.196 34.7987C204.226 34.7987 203.328 34.9927 202.501 35.3807C201.684 35.7585 200.836 36.2996 199.958 37.0041L197.983 34.6303C198.605 34.0993 199.269 33.6144 199.974 33.1753C200.688 32.7363 201.485 32.3892 202.363 32.1339C203.241 31.8684 204.241 31.7357 205.364 31.7357C206.784 31.7357 208.009 31.991 209.04 32.5015C210.071 33.0018 210.863 33.7011 211.414 34.5996C211.975 35.4981 212.256 36.5446 212.256 37.7392C212.256 38.944 212.016 40.0569 211.536 41.0779C211.057 42.0989 210.372 43.1097 209.484 44.1103C208.596 45.1006 207.539 46.1778 206.314 47.3417L202.439 51.1245V51.293H213.037V54.4479ZM230.987 43.2373C230.987 45.0445 230.844 46.6628 230.558 48.0922C230.282 49.5113 229.843 50.7161 229.241 51.7065C228.638 52.6969 227.852 53.4524 226.882 53.9731C225.912 54.4938 224.738 54.7542 223.36 54.7542C221.634 54.7542 220.21 54.2998 219.087 53.3912C217.964 52.4723 217.132 51.1552 216.59 49.4399C216.049 47.7144 215.779 45.6469 215.779 43.2373C215.779 40.8277 216.024 38.7653 216.514 37.05C217.014 35.3245 217.821 34.0023 218.934 33.0834C220.046 32.1645 221.522 31.7051 223.36 31.7051C225.095 31.7051 226.525 32.1645 227.648 33.0834C228.781 33.9921 229.618 35.3092 230.159 37.0347C230.711 38.75 230.987 40.8175 230.987 43.2373ZM219.408 43.2373C219.408 45.1261 219.531 46.7036 219.776 47.9696C220.031 49.2357 220.45 50.1852 221.032 50.8182C221.614 51.441 222.39 51.7524 223.36 51.7524C224.33 51.7524 225.106 51.441 225.688 50.8182C226.269 50.1954 226.688 49.251 226.943 47.985C227.209 46.7189 227.342 45.1364 227.342 43.2373C227.342 41.3587 227.214 39.7863 226.959 38.5203C226.703 37.2542 226.285 36.3047 225.703 35.6717C225.121 35.0284 224.34 34.7068 223.36 34.7068C222.379 34.7068 221.598 35.0284 221.016 35.6717C220.445 36.3047 220.031 37.2542 219.776 38.5203C219.531 39.7863 219.408 41.3587 219.408 43.2373ZM248.936 54.4479H233.774V51.7371L239.578 45.8562C240.701 44.7126 241.625 43.7274 242.35 42.9004C243.075 42.0631 243.611 41.2719 243.958 40.5265C244.316 39.7812 244.494 38.9695 244.494 38.0914C244.494 37.0092 244.183 36.1924 243.56 35.641C242.937 35.0795 242.115 34.7987 241.094 34.7987C240.124 34.7987 239.226 34.9927 238.399 35.3807C237.582 35.7585 236.735 36.2996 235.857 37.0041L233.881 34.6303C234.504 34.0993 235.168 33.6144 235.872 33.1753C236.587 32.7363 237.383 32.3892 238.261 32.1339C239.139 31.8684 240.14 31.7357 241.263 31.7357C242.682 31.7357 243.907 31.991 244.938 32.5015C245.97 33.0018 246.761 33.7011 247.312 34.5996C247.874 35.4981 248.155 36.5446 248.155 37.7392C248.155 38.944 247.915 40.0569 247.435 41.0779C246.955 42.0989 246.271 43.1097 245.383 44.1103C244.494 45.1006 243.438 46.1778 242.212 47.3417L238.338 51.1245V51.293H248.936V54.4479ZM266.885 54.4479H251.723V51.7371L257.527 45.8562C258.651 44.7126 259.575 43.7274 260.299 42.9004C261.024 42.0631 261.56 41.2719 261.908 40.5265C262.265 39.7812 262.444 38.9695 262.444 38.0914C262.444 37.0092 262.132 36.1924 261.509 35.641C260.887 35.0795 260.065 34.7987 259.044 34.7987C258.074 34.7987 257.175 34.9927 256.348 35.3807C255.531 35.7585 254.684 36.2996 253.806 37.0041L251.83 34.6303C252.453 34.0993 253.117 33.6144 253.821 33.1753C254.536 32.7363 255.332 32.3892 256.21 32.1339C257.088 31.8684 258.089 31.7357 259.212 31.7357C260.631 31.7357 261.856 31.991 262.888 32.5015C263.919 33.0018 264.71 33.7011 265.262 34.5996C265.823 35.4981 266.104 36.5446 266.104 37.7392C266.104 38.944 265.864 40.0569 265.384 41.0779C264.904 42.0989 264.22 43.1097 263.332 44.1103C262.444 45.1006 261.387 46.1778 260.162 47.3417L256.287 51.1245V51.293H266.885V54.4479Z" fill="white"/>
<path d="M485.793 34.6401L494.936 41.9479L485.793 49.2557" stroke="#D9D9D9" stroke-width="1.96032" stroke-linecap="round" stroke-linejoin="round"/>
<path d="M474.133 34.6401L464.99 41.9479L474.133 49.2557" stroke="#D9D9D9" stroke-width="1.96032" stroke-linecap="round" stroke-linejoin="round"/>
<path d="M23.9581 72.5011L507.522 71.3952" stroke="#D9D9D9" stroke-opacity="0.53" stroke-width="1.30688"/>
<rect x="1.74107" y="2.15155" width="527.998" height="192.123" rx="24.8308" stroke="black" stroke-opacity="0.2" stroke-width="2.61376"/>
<rect x="24.6727" y="87.8136" width="85.9712" height="126.308" rx="19.6032" fill="#D9D9D9" fill-opacity="0.06"/>
<path d="M62.5301 103.953V122.962H59.0865V107.303H58.9752L54.5292 110.144V106.988L59.2536 103.953H62.5301ZM73.9653 123.222C72.7277 123.222 71.6201 122.99 70.6424 122.526C69.6647 122.055 68.8882 121.412 68.3127 120.595C67.7434 119.778 67.4402 118.844 67.4031 117.792H70.7445C70.8064 118.571 71.1436 119.209 71.7562 119.704C72.3688 120.193 73.1052 120.437 73.9653 120.437C74.6398 120.437 75.24 120.282 75.766 119.973C76.292 119.664 76.7065 119.234 77.0098 118.683C77.313 118.132 77.4615 117.504 77.4553 116.799C77.4615 116.081 77.3099 115.443 77.0005 114.887C76.6911 114.33 76.2672 113.893 75.7289 113.578C75.1905 113.256 74.5717 113.095 73.8725 113.095C73.3032 113.089 72.7432 113.194 72.1925 113.411C71.6418 113.627 71.2055 113.912 70.8837 114.265L67.7743 113.754L68.7675 103.953H79.7943V106.83H71.617L71.0694 111.87H71.1808C71.5335 111.455 72.0316 111.112 72.6751 110.84C73.3187 110.561 74.0241 110.422 74.7914 110.422C75.9423 110.422 76.9695 110.694 77.873 111.239C78.7764 111.777 79.488 112.52 80.0078 113.466C80.5276 114.413 80.7875 115.496 80.7875 116.715C80.7875 117.971 80.4966 119.091 79.915 120.075C79.3395 121.053 78.5382 121.823 77.511 122.386C76.49 122.943 75.3081 123.222 73.9653 123.222Z" fill="white"/>
<path d="M58.1325 139.836H55.348V130.331H58.2996C59.2061 130.331 59.9811 130.52 60.6247 130.898C61.2713 131.275 61.7663 131.817 62.1098 132.522C62.4532 133.227 62.6249 134.074 62.6249 135.061C62.6249 136.057 62.4486 136.912 62.0958 137.627C61.7462 138.339 61.2357 138.885 60.5643 139.265C59.8961 139.646 59.0854 139.836 58.1325 139.836ZM56.2158 139.056H58.0815C58.8983 139.056 59.582 138.896 60.1327 138.574C60.6835 138.252 61.0965 137.793 61.3719 137.195C61.6472 136.598 61.7849 135.887 61.7849 135.061C61.7818 134.241 61.6457 133.535 61.3765 132.944C61.1104 132.353 60.7144 131.9 60.1884 131.585C59.6656 131.269 59.0189 131.111 58.2485 131.111H56.2158V139.056ZM64.9898 139.836V130.331H70.5032V131.111H65.8576V134.689H70.2108V135.469H65.8576V139.056H70.596V139.836H64.9898ZM80.4548 133.302H79.5823C79.5173 132.977 79.3998 132.677 79.2296 132.401C79.0625 132.123 78.8521 131.88 78.5984 131.673C78.3447 131.465 78.057 131.305 77.7352 131.19C77.4135 131.076 77.0654 131.018 76.691 131.018C76.0908 131.018 75.5432 131.175 75.0481 131.487C74.5562 131.8 74.1617 132.259 73.8647 132.865C73.5708 133.469 73.4238 134.208 73.4238 135.084C73.4238 135.966 73.5708 136.708 73.8647 137.311C74.1617 137.915 74.5562 138.373 75.0481 138.685C75.5432 138.995 76.0908 139.149 76.691 139.149C77.0654 139.149 77.4135 139.092 77.7352 138.978C78.057 138.863 78.3447 138.704 78.5984 138.5C78.8521 138.292 79.0625 138.049 79.2296 137.771C79.3998 137.492 79.5173 137.191 79.5823 136.866H80.4548C80.3774 137.302 80.232 137.709 80.0186 138.086C79.8082 138.461 79.539 138.789 79.211 139.07C78.8862 139.352 78.5118 139.572 78.0879 139.729C77.6641 139.887 77.1984 139.966 76.691 139.966C75.8928 139.966 75.1843 139.766 74.5655 139.367C73.9467 138.965 73.4609 138.399 73.1082 137.669C72.7586 136.939 72.5838 136.077 72.5838 135.084C72.5838 134.091 72.7586 133.229 73.1082 132.499C73.4609 131.769 73.9467 131.204 74.5655 130.805C75.1843 130.403 75.8928 130.202 76.691 130.202C77.1984 130.202 77.6641 130.28 78.0879 130.438C78.5118 130.593 78.8862 130.813 79.211 131.097C79.539 131.379 79.8082 131.707 80.0186 132.081C80.232 132.455 80.3774 132.862 80.4548 133.302Z" fill="white"/>
<path d="M41.3182 172.146V170.294H52.352V172.146H47.9037V184.551H45.7596V172.146H41.3182ZM54.7902 184.551V170.294H56.9413V176.49H64.0488V170.294H66.2069V184.551H64.0488V178.334H56.9413V184.551H54.7902ZM78.5076 170.294H80.6656V179.671C80.6656 180.669 80.4313 181.553 79.9625 182.323C79.4938 183.089 78.8348 183.692 77.9855 184.133C77.1362 184.569 76.1407 184.788 74.9991 184.788C73.8621 184.788 72.8689 184.569 72.0196 184.133C71.1703 183.692 70.5113 183.089 70.0426 182.323C69.5738 181.553 69.3395 180.669 69.3395 179.671V170.294H71.4905V179.497C71.4905 180.142 71.6321 180.715 71.9152 181.216C72.2029 181.718 72.609 182.112 73.1334 182.4C73.6579 182.683 74.2797 182.824 74.9991 182.824C75.7231 182.824 76.3473 182.683 76.8717 182.4C77.4008 182.112 77.8045 181.718 78.083 181.216C78.3661 180.715 78.5076 180.142 78.5076 179.497V170.294ZM83.793 184.551V170.294H88.8748C89.9794 170.294 90.896 170.484 91.6246 170.865C92.3578 171.245 92.9055 171.772 93.2675 172.445C93.6295 173.113 93.8104 173.886 93.8104 174.763C93.8104 175.636 93.6271 176.404 93.2605 177.067C92.8985 177.726 92.3509 178.239 91.6176 178.606C90.889 178.973 89.9724 179.156 88.8679 179.156H85.0182V177.304H88.673C89.3691 177.304 89.9353 177.204 90.3715 177.005C90.8124 176.805 91.135 176.515 91.3392 176.135C91.5434 175.754 91.6455 175.297 91.6455 174.763C91.6455 174.225 91.541 173.758 91.3322 173.364C91.128 172.969 90.8055 172.668 90.3646 172.459C89.9283 172.246 89.3552 172.139 88.6451 172.139H85.9441V184.551H83.793ZM90.831 178.119L94.3534 184.551H91.903L88.4502 178.119H90.831Z" fill="white"/>
<rect x="25.9796" y="89.1205" width="83.3574" height="123.694" rx="18.2963" stroke="black" stroke-opacity="0.2" stroke-width="2.61376"/>
<rect x="123.713" y="87.8136" width="85.9712" height="126.308" rx="19.6032" fill="#D9D9D9" fill-opacity="0.06"/>
<path d="M161.366 103.953V122.962H157.922V107.303H157.811L153.365 110.144V106.988L158.089 103.953H161.366ZM173.154 123.222C172.244 123.215 171.356 123.058 170.49 122.748C169.624 122.433 168.844 121.922 168.151 121.217C167.458 120.505 166.907 119.562 166.499 118.386C166.09 117.204 165.889 115.74 165.895 113.995C165.895 112.368 166.069 110.917 166.415 109.642C166.762 108.368 167.26 107.291 167.91 106.412C168.559 105.527 169.342 104.853 170.258 104.389C171.18 103.925 172.21 103.693 173.349 103.693C174.543 103.693 175.601 103.928 176.523 104.398C177.451 104.868 178.2 105.512 178.769 106.329C179.339 107.139 179.691 108.055 179.827 109.076H176.44C176.266 108.346 175.911 107.764 175.372 107.331C174.84 106.892 174.166 106.672 173.349 106.672C172.031 106.672 171.016 107.245 170.304 108.389C169.599 109.534 169.243 111.106 169.237 113.104H169.367C169.67 112.56 170.063 112.093 170.546 111.703C171.028 111.313 171.573 111.013 172.179 110.803C172.792 110.586 173.438 110.478 174.119 110.478C175.233 110.478 176.232 110.744 177.117 111.276C178.008 111.808 178.714 112.541 179.233 113.476C179.753 114.404 180.01 115.468 180.004 116.669C180.01 117.919 179.725 119.042 179.15 120.038C178.574 121.028 177.773 121.808 176.746 122.377C175.719 122.946 174.521 123.228 173.154 123.222ZM173.135 120.437C173.81 120.437 174.413 120.273 174.945 119.945C175.477 119.617 175.898 119.175 176.208 118.618C176.517 118.061 176.669 117.436 176.662 116.743C176.669 116.062 176.52 115.447 176.217 114.896C175.92 114.345 175.508 113.909 174.982 113.587C174.456 113.265 173.856 113.104 173.182 113.104C172.68 113.104 172.213 113.2 171.78 113.392C171.347 113.584 170.97 113.85 170.648 114.19C170.326 114.525 170.072 114.914 169.887 115.36C169.707 115.799 169.614 116.27 169.608 116.771C169.614 117.433 169.769 118.042 170.072 118.599C170.375 119.156 170.793 119.602 171.325 119.936C171.857 120.27 172.461 120.437 173.135 120.437Z" fill="white"/>
<path d="M157.173 139.836H154.388V130.331H157.34C158.246 130.331 159.021 130.52 159.665 130.898C160.311 131.275 160.806 131.817 161.15 132.522C161.493 133.227 161.665 134.074 161.665 135.061C161.665 136.057 161.489 136.912 161.136 137.627C160.786 138.339 160.276 138.885 159.604 139.265C158.936 139.646 158.125 139.836 157.173 139.836ZM155.256 139.056H157.121C157.938 139.056 158.622 138.896 159.173 138.574C159.723 138.252 160.137 137.793 160.412 137.195C160.687 136.598 160.825 135.887 160.825 135.061C160.822 134.241 160.686 133.535 160.417 132.944C160.15 132.353 159.754 131.9 159.228 131.585C158.706 131.269 158.059 131.111 157.289 131.111H155.256V139.056ZM164.03 139.836V130.331H169.543V131.111H164.898V134.689H169.251V135.469H164.898V139.056H169.636V139.836H164.03ZM179.495 133.302H178.622C178.557 132.977 178.44 132.677 178.27 132.401C178.103 132.123 177.892 131.88 177.638 131.673C177.385 131.465 177.097 131.305 176.775 131.19C176.453 131.076 176.105 131.018 175.731 131.018C175.131 131.018 174.583 131.175 174.088 131.487C173.596 131.8 173.202 132.259 172.905 132.865C172.611 133.469 172.464 134.208 172.464 135.084C172.464 135.966 172.611 136.708 172.905 137.311C173.202 137.915 173.596 138.373 174.088 138.685C174.583 138.995 175.131 139.149 175.731 139.149C176.105 139.149 176.453 139.092 176.775 138.978C177.097 138.863 177.385 138.704 177.638 138.5C177.892 138.292 178.103 138.049 178.27 137.771C178.44 137.492 178.557 137.191 178.622 136.866H179.495C179.417 137.302 179.272 137.709 179.059 138.086C178.848 138.461 178.579 138.789 178.251 139.07C177.926 139.352 177.552 139.572 177.128 139.729C176.704 139.887 176.238 139.966 175.731 139.966C174.933 139.966 174.224 139.766 173.605 139.367C172.987 138.965 172.501 138.399 172.148 137.669C171.799 136.939 171.624 136.077 171.624 135.084C171.624 134.091 171.799 133.229 172.148 132.499C172.501 131.769 172.987 131.204 173.605 130.805C174.224 130.403 174.933 130.202 175.731 130.202C176.238 130.202 176.704 130.28 177.128 130.438C177.552 130.593 177.926 130.813 178.251 131.097C178.579 131.379 178.848 131.707 179.059 132.081C179.272 132.455 179.417 132.862 179.495 133.302Z" fill="white"/>
<path d="M153.562 184.551V170.294H162.403V172.146H155.713V176.49H161.77V178.334H155.713V184.551H153.562ZM165.048 184.551V170.294H170.13C171.235 170.294 172.151 170.484 172.88 170.865C173.613 171.245 174.161 171.772 174.523 172.445C174.885 173.113 175.066 173.886 175.066 174.763C175.066 175.636 174.883 176.404 174.516 177.067C174.154 177.726 173.606 178.239 172.873 178.606C172.144 178.973 171.228 179.156 170.123 179.156H166.274V177.304H169.928C170.625 177.304 171.191 177.204 171.627 177.005C172.068 176.805 172.39 176.515 172.595 176.135C172.799 175.754 172.901 175.297 172.901 174.763C172.901 174.225 172.796 173.758 172.588 173.364C172.383 172.969 172.061 172.668 171.62 172.459C171.184 172.246 170.611 172.139 169.901 172.139H167.2V184.551H165.048ZM172.086 178.119L175.609 184.551H173.158L169.706 178.119H172.086ZM179.834 170.294V184.551H177.683V170.294H179.834Z" fill="white"/>
<rect x="125.02" y="89.1205" width="83.3574" height="123.694" rx="18.2963" stroke="url(#paint0_linear_222_182)" stroke-opacity="0.7" stroke-width="2.61376"/>
<rect x="222.753" y="87.8136" width="85.9712" height="126.308" rx="19.6032" fill="#D9D9D9" fill-opacity="0.06"/>
<path d="M261.21 103.953V122.962H257.766V107.303H257.655L253.209 110.144V106.988L257.933 103.953H261.21ZM266.733 122.962L274.817 106.96V106.83H265.433V103.953H278.381V106.895L270.306 122.962H266.733Z" fill="white"/>
<path d="M256.213 139.836H253.428V130.331H256.38C257.286 130.331 258.061 130.52 258.705 130.898C259.351 131.275 259.846 131.817 260.19 132.522C260.533 133.227 260.705 134.074 260.705 135.061C260.705 136.057 260.529 136.912 260.176 137.627C259.826 138.339 259.316 138.885 258.644 139.265C257.976 139.646 257.165 139.836 256.213 139.836ZM254.296 139.056H256.161C256.978 139.056 257.662 138.896 258.213 138.574C258.764 138.252 259.177 137.793 259.452 137.195C259.727 136.598 259.865 135.887 259.865 135.061C259.862 134.241 259.726 133.535 259.457 132.944C259.19 132.353 258.794 131.9 258.268 131.585C257.746 131.269 257.099 131.111 256.329 131.111H254.296V139.056ZM263.07 139.836V130.331H268.583V131.111H263.938V134.689H268.291V135.469H263.938V139.056H268.676V139.836H263.07ZM278.535 133.302H277.662C277.597 132.977 277.48 132.677 277.31 132.401C277.143 132.123 276.932 131.88 276.678 131.673C276.425 131.465 276.137 131.305 275.815 131.19C275.493 131.076 275.145 131.018 274.771 131.018C274.171 131.018 273.623 131.175 273.128 131.487C272.636 131.8 272.242 132.259 271.945 132.865C271.651 133.469 271.504 134.208 271.504 135.084C271.504 135.966 271.651 136.708 271.945 137.311C272.242 137.915 272.636 138.373 273.128 138.685C273.623 138.995 274.171 139.149 274.771 139.149C275.145 139.149 275.493 139.092 275.815 138.978C276.137 138.863 276.425 138.704 276.678 138.5C276.932 138.292 277.143 138.049 277.31 137.771C277.48 137.492 277.597 137.191 277.662 136.866H278.535C278.457 137.302 278.312 137.709 278.099 138.086C277.888 138.461 277.619 138.789 277.291 139.07C276.966 139.352 276.592 139.572 276.168 139.729C275.744 139.887 275.278 139.966 274.771 139.966C273.973 139.966 273.264 139.766 272.646 139.367C272.027 138.965 271.541 138.399 271.188 137.669C270.839 136.939 270.664 136.077 270.664 135.084C270.664 134.091 270.839 133.229 271.188 132.499C271.541 131.769 272.027 131.204 272.646 130.805C273.264 130.403 273.973 130.202 274.771 130.202C275.278 130.202 275.744 130.28 276.168 130.438C276.592 130.593 276.966 130.813 277.291 131.097C277.619 131.379 277.888 131.707 278.099 132.081C278.312 132.455 278.457 132.862 278.535 133.302Z" fill="white"/>
<path d="M256.425 174.039C256.351 173.38 256.044 172.87 255.506 172.508C254.968 172.141 254.29 171.958 253.473 171.958C252.889 171.958 252.383 172.051 251.956 172.236C251.529 172.417 251.197 172.668 250.96 172.988C250.728 173.304 250.612 173.663 250.612 174.067C250.612 174.406 250.691 174.698 250.849 174.944C251.011 175.19 251.222 175.397 251.482 175.564C251.747 175.726 252.03 175.863 252.332 175.974C252.633 176.081 252.923 176.169 253.202 176.239L254.594 176.601C255.049 176.712 255.515 176.863 255.993 177.054C256.471 177.244 256.915 177.494 257.323 177.805C257.731 178.116 258.061 178.501 258.311 178.961C258.567 179.42 258.694 179.97 258.694 180.611C258.694 181.418 258.485 182.135 258.068 182.762C257.655 183.388 257.054 183.883 256.265 184.245C255.48 184.607 254.531 184.788 253.418 184.788C252.35 184.788 251.427 184.618 250.647 184.279C249.867 183.941 249.257 183.46 248.816 182.838C248.375 182.212 248.132 181.469 248.085 180.611H250.243C250.285 181.126 250.452 181.555 250.744 181.899C251.041 182.237 251.42 182.49 251.879 182.657C252.343 182.82 252.851 182.901 253.404 182.901C254.012 182.901 254.552 182.806 255.026 182.616C255.504 182.421 255.88 182.152 256.153 181.808C256.427 181.46 256.564 181.054 256.564 180.59C256.564 180.168 256.443 179.822 256.202 179.553C255.965 179.283 255.643 179.061 255.234 178.884C254.831 178.708 254.374 178.553 253.863 178.418L252.178 177.958C251.037 177.648 250.132 177.19 249.464 176.587C248.8 175.984 248.468 175.186 248.468 174.192C248.468 173.371 248.691 172.654 249.136 172.041C249.582 171.429 250.185 170.953 250.946 170.614C251.707 170.271 252.566 170.099 253.522 170.099C254.487 170.099 255.339 170.268 256.077 170.607C256.819 170.946 257.404 171.412 257.831 172.007C258.258 172.596 258.481 173.273 258.499 174.039H256.425ZM262.354 184.551H260.071L265.201 170.294H267.687L272.817 184.551H270.534L266.503 172.884H266.392L262.354 184.551ZM262.737 178.968H270.144V180.778H262.737V178.968ZM272.488 172.146V170.294H283.522V172.146H279.074V184.551H276.93V172.146H272.488Z" fill="white"/>
<rect x="224.06" y="89.1205" width="83.3574" height="123.694" rx="18.2963" stroke="url(#paint1_linear_222_182)" stroke-opacity="0.7" stroke-width="2.61376"/>
<rect x="321.793" y="87.8136" width="85.9712" height="126.308" rx="19.6032" fill="#D9D9D9" fill-opacity="0.06"/>
<path d="M359.484 103.953V122.962H356.041V107.303H355.929L351.483 110.144V106.988L356.208 103.953H359.484ZM371.068 123.222C369.688 123.222 368.463 122.99 367.392 122.526C366.328 122.061 365.493 121.427 364.886 120.623C364.286 119.812 363.989 118.893 363.995 117.866C363.989 117.068 364.162 116.335 364.515 115.666C364.868 114.998 365.344 114.441 365.944 113.995C366.551 113.544 367.225 113.256 367.968 113.132V113.002C366.99 112.786 366.198 112.288 365.592 111.508C364.992 110.722 364.694 109.816 364.701 108.788C364.694 107.811 364.967 106.938 365.517 106.171C366.068 105.404 366.823 104.8 367.782 104.361C368.741 103.915 369.837 103.693 371.068 103.693C372.287 103.693 373.373 103.915 374.326 104.361C375.285 104.8 376.04 105.404 376.591 106.171C377.148 106.938 377.426 107.811 377.426 108.788C377.426 109.816 377.12 110.722 376.507 111.508C375.901 112.288 375.118 112.786 374.159 113.002V113.132C374.901 113.256 375.57 113.544 376.164 113.995C376.764 114.441 377.24 114.998 377.593 115.666C377.952 116.335 378.131 117.068 378.131 117.866C378.131 118.893 377.828 119.812 377.222 120.623C376.615 121.427 375.78 122.061 374.716 122.526C373.658 122.99 372.442 123.222 371.068 123.222ZM371.068 120.567C371.78 120.567 372.398 120.446 372.924 120.205C373.45 119.958 373.859 119.611 374.15 119.165C374.44 118.72 374.589 118.206 374.595 117.625C374.589 117.018 374.431 116.483 374.122 116.019C373.819 115.549 373.401 115.18 372.869 114.914C372.343 114.648 371.742 114.515 371.068 114.515C370.387 114.515 369.781 114.648 369.249 114.914C368.717 115.18 368.296 115.549 367.986 116.019C367.683 116.483 367.535 117.018 367.541 117.625C367.535 118.206 367.677 118.72 367.968 119.165C368.259 119.605 368.667 119.948 369.193 120.196C369.725 120.443 370.35 120.567 371.068 120.567ZM371.068 111.907C371.65 111.907 372.163 111.79 372.609 111.554C373.061 111.319 373.416 110.991 373.676 110.571C373.936 110.15 374.069 109.664 374.075 109.113C374.069 108.569 373.939 108.092 373.685 107.684C373.432 107.269 373.079 106.951 372.627 106.728C372.176 106.499 371.656 106.384 371.068 106.384C370.468 106.384 369.939 106.499 369.481 106.728C369.029 106.951 368.676 107.269 368.423 107.684C368.175 108.092 368.055 108.569 368.061 109.113C368.055 109.664 368.178 110.15 368.432 110.571C368.692 110.985 369.048 111.313 369.499 111.554C369.957 111.79 370.48 111.907 371.068 111.907Z" fill="white"/>
<path d="M355.253 139.836H352.468V130.331H355.42C356.326 130.331 357.101 130.52 357.745 130.898C358.391 131.275 358.886 131.817 359.23 132.522C359.573 133.227 359.745 134.074 359.745 135.061C359.745 136.057 359.569 136.912 359.216 137.627C358.866 138.339 358.356 138.885 357.684 139.265C357.016 139.646 356.206 139.836 355.253 139.836ZM353.336 139.056H355.202C356.018 139.056 356.702 138.896 357.253 138.574C357.804 138.252 358.217 137.793 358.492 137.195C358.767 136.598 358.905 135.887 358.905 135.061C358.902 134.241 358.766 133.535 358.497 132.944C358.231 132.353 357.834 131.9 357.309 131.585C356.786 131.269 356.139 131.111 355.369 131.111H353.336V139.056ZM362.11 139.836V130.331H367.623V131.111H362.978V134.689H367.331V135.469H362.978V139.056H367.716V139.836H362.11ZM377.575 133.302H376.702C376.637 132.977 376.52 132.677 376.35 132.401C376.183 132.123 375.972 131.88 375.719 131.673C375.465 131.465 375.177 131.305 374.855 131.19C374.534 131.076 374.185 131.018 373.811 131.018C373.211 131.018 372.663 131.175 372.168 131.487C371.676 131.8 371.282 132.259 370.985 132.865C370.691 133.469 370.544 134.208 370.544 135.084C370.544 135.966 370.691 136.708 370.985 137.311C371.282 137.915 371.676 138.373 372.168 138.685C372.663 138.995 373.211 139.149 373.811 139.149C374.185 139.149 374.534 139.092 374.855 138.978C375.177 138.863 375.465 138.704 375.719 138.5C375.972 138.292 376.183 138.049 376.35 137.771C376.52 137.492 376.637 137.191 376.702 136.866H377.575C377.498 137.302 377.352 137.709 377.139 138.086C376.928 138.461 376.659 138.789 376.331 139.07C376.006 139.352 375.632 139.572 375.208 139.729C374.784 139.887 374.319 139.966 373.811 139.966C373.013 139.966 372.304 139.766 371.686 139.367C371.067 138.965 370.581 138.399 370.228 137.669C369.879 136.939 369.704 136.077 369.704 135.084C369.704 134.091 369.879 133.229 370.228 132.499C370.581 131.769 371.067 131.204 371.686 130.805C372.304 130.403 373.013 130.202 373.811 130.202C374.319 130.202 374.784 130.28 375.208 130.438C375.632 130.593 376.006 130.813 376.331 131.097C376.659 131.379 376.928 131.707 377.139 132.081C377.352 132.455 377.498 132.862 377.575 133.302Z" fill="white"/>
<path d="M353.263 174.039C353.189 173.38 352.883 172.87 352.344 172.508C351.806 172.141 351.129 171.958 350.312 171.958C349.727 171.958 349.221 172.051 348.794 172.236C348.367 172.417 348.035 172.668 347.799 172.988C347.567 173.304 347.451 173.663 347.451 174.067C347.451 174.406 347.53 174.698 347.687 174.944C347.85 175.19 348.061 175.397 348.321 175.564C348.585 175.726 348.868 175.863 349.17 175.974C349.472 176.081 349.762 176.169 350.04 176.239L351.433 176.601C351.887 176.712 352.354 176.863 352.832 177.054C353.31 177.244 353.753 177.494 354.161 177.805C354.57 178.116 354.899 178.501 355.15 178.961C355.405 179.42 355.533 179.97 355.533 180.611C355.533 181.418 355.324 182.135 354.906 182.762C354.493 183.388 353.892 183.883 353.103 184.245C352.319 184.607 351.37 184.788 350.256 184.788C349.189 184.788 348.265 184.618 347.485 184.279C346.706 183.941 346.095 183.46 345.655 182.838C345.214 182.212 344.97 181.469 344.924 180.611H347.082C347.123 181.126 347.291 181.555 347.583 181.899C347.88 182.237 348.258 182.49 348.718 182.657C349.182 182.82 349.69 182.901 350.242 182.901C350.85 182.901 351.391 182.806 351.864 182.616C352.342 182.421 352.718 182.152 352.992 181.808C353.266 181.46 353.403 181.054 353.403 180.59C353.403 180.168 353.282 179.822 353.041 179.553C352.804 179.283 352.481 179.061 352.073 178.884C351.669 178.708 351.212 178.553 350.702 178.418L349.017 177.958C347.875 177.648 346.97 177.19 346.302 176.587C345.638 175.984 345.307 175.186 345.307 174.192C345.307 173.371 345.529 172.654 345.975 172.041C346.42 171.429 347.024 170.953 347.785 170.614C348.546 170.271 349.404 170.099 350.361 170.099C351.326 170.099 352.177 170.268 352.915 170.607C353.658 170.946 354.243 171.412 354.67 172.007C355.097 172.596 355.319 173.273 355.338 174.039H353.263ZM367.271 170.294H369.429V179.671C369.429 180.669 369.195 181.553 368.726 182.323C368.258 183.089 367.599 183.692 366.749 184.133C365.9 184.569 364.905 184.788 363.763 184.788C362.626 184.788 361.633 184.569 360.783 184.133C359.934 183.692 359.275 183.089 358.806 182.323C358.338 181.553 358.103 180.669 358.103 179.671V170.294H360.254V179.497C360.254 180.142 360.396 180.715 360.679 181.216C360.967 181.718 361.373 182.112 361.897 182.4C362.422 182.683 363.044 182.824 363.763 182.824C364.487 182.824 365.111 182.683 365.635 182.4C366.165 182.112 366.568 181.718 366.847 181.216C367.13 180.715 367.271 180.142 367.271 179.497V170.294ZM384.064 170.294V184.551H382.087L374.84 174.095H374.708V184.551H372.557V170.294H374.548L381.802 180.764H381.934V170.294H384.064Z" fill="white"/>
<rect x="323.1" y="89.1205" width="83.3574" height="123.694" rx="18.2963" stroke="url(#paint2_linear_222_182)" stroke-opacity="0.7" stroke-width="2.61376"/>
<rect x="420.833" y="87.8136" width="85.9712" height="126.308" rx="19.6032" fill="#D9D9D9" fill-opacity="0.06"/>
<path d="M458.486 103.953V122.962H455.042V107.303H454.931L450.485 110.144V106.988L455.209 103.953H458.486ZM469.912 103.693C470.822 103.699 471.706 103.86 472.567 104.175C473.433 104.485 474.212 104.992 474.906 105.698C475.599 106.397 476.149 107.334 476.558 108.51C476.966 109.686 477.17 111.14 477.17 112.872C477.176 114.506 477.003 115.966 476.651 117.253C476.304 118.534 475.806 119.617 475.156 120.502C474.506 121.387 473.724 122.061 472.808 122.526C471.892 122.99 470.862 123.222 469.717 123.222C468.517 123.222 467.452 122.986 466.524 122.516C465.602 122.046 464.856 121.402 464.287 120.586C463.718 119.769 463.368 118.834 463.238 117.782H466.626C466.799 118.537 467.152 119.138 467.684 119.583C468.223 120.022 468.9 120.242 469.717 120.242C471.035 120.242 472.05 119.67 472.761 118.525C473.473 117.38 473.829 115.79 473.829 113.754H473.699C473.396 114.299 473.003 114.769 472.52 115.165C472.037 115.555 471.49 115.855 470.877 116.065C470.271 116.276 469.627 116.381 468.947 116.381C467.833 116.381 466.83 116.115 465.939 115.583C465.054 115.051 464.352 114.32 463.832 113.392C463.319 112.464 463.059 111.403 463.053 110.209C463.053 108.971 463.337 107.86 463.907 106.876C464.482 105.886 465.283 105.107 466.311 104.537C467.338 103.962 468.538 103.68 469.912 103.693ZM469.921 106.477C469.253 106.477 468.65 106.641 468.111 106.969C467.579 107.291 467.158 107.73 466.849 108.287C466.546 108.838 466.394 109.454 466.394 110.134C466.4 110.809 466.552 111.421 466.849 111.972C467.152 112.523 467.564 112.959 468.083 113.281C468.609 113.603 469.21 113.763 469.884 113.763C470.385 113.763 470.852 113.668 471.286 113.476C471.719 113.284 472.096 113.018 472.418 112.677C472.746 112.331 473 111.938 473.179 111.499C473.365 111.059 473.454 110.595 473.448 110.106C473.448 109.457 473.294 108.856 472.984 108.306C472.681 107.755 472.263 107.313 471.731 106.978C471.205 106.644 470.602 106.477 469.921 106.477Z" fill="white"/>
<path d="M454.293 139.836H451.508V130.331H454.46C455.366 130.331 456.141 130.52 456.785 130.898C457.431 131.275 457.926 131.817 458.27 132.522C458.613 133.227 458.785 134.074 458.785 135.061C458.785 136.057 458.609 136.912 458.256 137.627C457.906 138.339 457.396 138.885 456.724 139.265C456.056 139.646 455.245 139.836 454.293 139.836ZM452.376 139.056H454.242C455.058 139.056 455.742 138.896 456.293 138.574C456.844 138.252 457.257 137.793 457.532 137.195C457.807 136.598 457.945 135.887 457.945 135.061C457.942 134.241 457.806 133.535 457.537 132.944C457.27 132.353 456.874 131.9 456.348 131.585C455.826 131.269 455.179 131.111 454.409 131.111H452.376V139.056ZM461.15 139.836V130.331H466.663V131.111H462.018V134.689H466.371V135.469H462.018V139.056H466.756V139.836H461.15ZM476.615 133.302H475.742C475.677 132.977 475.56 132.677 475.39 132.401C475.223 132.123 475.012 131.88 474.758 131.673C474.505 131.465 474.217 131.305 473.895 131.19C473.574 131.076 473.225 131.018 472.851 131.018C472.251 131.018 471.703 131.175 471.208 131.487C470.716 131.8 470.322 132.259 470.025 132.865C469.731 133.469 469.584 134.208 469.584 135.084C469.584 135.966 469.731 136.708 470.025 137.311C470.322 137.915 470.716 138.373 471.208 138.685C471.703 138.995 472.251 139.149 472.851 139.149C473.225 139.149 473.574 139.092 473.895 138.978C474.217 138.863 474.505 138.704 474.758 138.5C475.012 138.292 475.223 138.049 475.39 137.771C475.56 137.492 475.677 137.191 475.742 136.866H476.615C476.538 137.302 476.392 137.709 476.179 138.086C475.968 138.461 475.699 138.789 475.371 139.07C475.046 139.352 474.672 139.572 474.248 139.729C473.824 139.887 473.358 139.966 472.851 139.966C472.053 139.966 471.344 139.766 470.726 139.367C470.107 138.965 469.621 138.399 469.268 137.669C468.919 136.939 468.744 136.077 468.744 135.084C468.744 134.091 468.919 133.229 469.268 132.499C469.621 131.769 470.107 131.204 470.726 130.805C471.344 130.403 472.053 130.202 472.851 130.202C473.358 130.202 473.824 130.28 474.248 130.438C474.672 130.593 475.046 130.813 475.371 131.097C475.699 131.379 475.968 131.707 476.179 132.081C476.392 132.455 476.538 132.862 476.615 133.302Z" fill="white"/>
<path d="M441.733 170.294H444.343L448.882 181.377H449.049L453.588 170.294H456.198V184.551H454.152V174.234H454.019L449.815 184.53H448.116L443.911 174.227H443.779V184.551H441.733V170.294ZM471.71 177.422C471.71 178.945 471.431 180.253 470.875 181.349C470.318 182.439 469.554 183.279 468.584 183.869C467.619 184.453 466.521 184.746 465.292 184.746C464.057 184.746 462.955 184.453 461.985 183.869C461.02 183.279 460.258 182.437 459.702 181.342C459.145 180.246 458.866 178.94 458.866 177.422C458.866 175.9 459.145 174.594 459.702 173.503C460.258 172.408 461.02 171.568 461.985 170.983C462.955 170.394 464.057 170.099 465.292 170.099C466.521 170.099 467.619 170.394 468.584 170.983C469.554 171.568 470.318 172.408 470.875 173.503C471.431 174.594 471.71 175.9 471.71 177.422ZM469.58 177.422C469.58 176.262 469.392 175.285 469.016 174.492C468.645 173.693 468.134 173.09 467.484 172.682C466.839 172.269 466.108 172.062 465.292 172.062C464.47 172.062 463.737 172.269 463.092 172.682C462.447 173.09 461.936 173.693 461.56 174.492C461.189 175.285 461.003 176.262 461.003 177.422C461.003 178.583 461.189 179.562 461.56 180.36C461.936 181.154 462.447 181.757 463.092 182.17C463.737 182.579 464.47 182.783 465.292 182.783C466.108 182.783 466.839 182.579 467.484 182.17C468.134 181.757 468.645 181.154 469.016 180.36C469.392 179.562 469.58 178.583 469.58 177.422ZM485.899 170.294V184.551H483.922L476.675 174.095H476.543V184.551H474.392V170.294H476.383L483.637 180.764H483.769V170.294H485.899Z" fill="white"/>
<rect x="422.14" y="89.1205" width="83.3574" height="123.694" rx="18.2963" stroke="black" stroke-opacity="0.2" stroke-width="2.61376"/>
<defs>
<linearGradient id="paint0_linear_222_182" x1="166.698" y1="87.8136" x2="166.698" y2="214.121" gradientUnits="userSpaceOnUse">
<stop stop-color="#F993B1"/>
<stop offset="0.488884" stop-color="#E5A9CF"/>
<stop offset="1" stop-color="#8C7EF5"/>
</linearGradient>
<linearGradient id="paint1_linear_222_182" x1="265.738" y1="87.8136" x2="265.738" y2="214.121" gradientUnits="userSpaceOnUse">
<stop stop-color="#F993B1"/>
<stop offset="0.488884" stop-color="#E5A9CF"/>
<stop offset="1" stop-color="#8C7EF5"/>
</linearGradient>
<linearGradient id="paint2_linear_222_182" x1="364.778" y1="87.8136" x2="364.778" y2="214.121" gradientUnits="userSpaceOnUse">
<stop stop-color="#F993B1"/>
<stop offset="0.488884" stop-color="#E5A9CF"/>
<stop offset="1" stop-color="#8C7EF5"/>
</linearGradient>
</defs>
</svg>
