<svg width="201" height="60" viewBox="0 0 201 60" fill="none" xmlns="http://www.w3.org/2000/svg">
<g clip-path="url(#clip0_122_333)">
<path d="M153.25 52.7L158.65 51V6.5L153.25 8.2V52.7ZM91.2 25.7C94.6 25.7 97.7 27.2 99.7 29.7L101.9 24.65C99 21.9 95.2 20.6 91.2 20.6C81.95 20.6 75.55 27.9 75.6 36C75.65 44.75 82.55 51.9 91.2 51.9C95.6 51.9 98.9 50.6 101.4 48.75V42.5C98.75 45.15 94.95 46.7 91.65 46.7C86.65 46.7 81 42.65 81 35.95C81 29.75 85.85 25.7 91.2 25.7ZM127 20.55C117.75 20.55 112.35 27.85 112.35 35.95C112.35 44.7 119.3 51.85 127.95 51.85C132.35 51.85 135.65 50.55 138.15 48.7V42.5C135.5 45.15 131.7 46.7 128.4 46.7C123.95 46.7 119.1 43.95 118.1 38.15H141.7V36.1C141.6 27.45 135.95 20.55 127 20.55ZM185.1 20.55C176.45 20.55 169.45 27.55 169.45 36.2C169.45 44.85 176.45 51.85 185.1 51.85C193.75 51.85 200.75 44.85 200.75 36.2C200.75 27.55 193.75 20.55 185.1 20.55ZM127.05 25.7C131.25 25.7 135.7 28.35 136.05 33.4H118.05C118.4 28.3 122.85 25.7 127.05 25.7ZM185.1 46.7C179.3 46.7 174.6 42 174.6 36.2C174.6 30.4 179.3 25.7 185.1 25.7C190.9 25.7 195.6 30.4 195.6 36.2C195.6 42 190.95 46.7 185.1 46.7Z" fill="white"/>
<path d="M36.5 40.9C46 40.9 53.7 33.2 53.7 23.7C53.7 14.2 46 6.5 36.5 6.5C27 6.5 19.3 14.2 19.3 23.7C19.3 33.2 27 40.9 36.5 40.9ZM36.5 47.15C23.55 47.15 13.05 36.65 13.05 23.7C13.05 10.75 23.55 0.25 36.5 0.25C49.45 0.25 59.95 10.75 59.95 23.7C59.95 36.65 49.45 47.15 36.5 47.15Z" fill="#35D07F"/>
<path d="M24 53.4C33.5 53.4 41.2 45.7 41.2 36.2C41.2 26.7 33.5 19 24 19C14.5 19 6.79999 26.7 6.79999 36.2C6.79999 45.7 14.5 53.4 24 53.4ZM24 59.65C11.05 59.65 0.549988 49.15 0.549988 36.2C0.549988 23.25 11.05 12.75 24 12.75C36.95 12.75 47.45 23.25 47.45 36.2C47.45 49.15 36.95 59.65 24 59.65Z" fill="#FBCC5C"/>
<path d="M37.25 47.15C38.9 45.2 40.05 42.85 40.65 40.4C43.15 39.8 45.45 38.6 47.4 37C47.3 39.85 46.7 42.7 45.6 45.35C42.95 46.45 40.15 47.05 37.25 47.15ZM19.8 19.5C17.3 20.1 15 21.3 13.05 22.9C13.15 20.05 13.75 17.2 14.85 14.55C17.5 13.45 20.3 12.8 23.2 12.75C21.6 14.7 20.45 17.05 19.8 19.5Z" fill="#ECFF8F"/>
</g>
<defs>
<clipPath id="clip0_122_333">
<rect width="200.5" height="60" fill="white" transform="translate(0.25)"/>
</clipPath>
</defs>
</svg>
