<svg width="173" height="60" viewBox="0 0 173 60" fill="none" xmlns="http://www.w3.org/2000/svg">
<g clip-path="url(#clip0_122_317)">
<path d="M85.7857 13.504H75.1388V42.3181H72.5243V13.504H61.9043V11.2938H85.7857V13.504ZM95.624 42.7763C93.6563 42.7763 91.8774 42.2911 90.314 41.3208C88.7507 40.3504 87.4838 39.0027 86.6213 37.2776C85.7318 35.5526 85.3005 33.6119 85.3005 31.4825V30.566C85.3005 28.3558 85.7318 26.3612 86.5943 24.5822C87.4569 22.8032 88.6429 21.4016 90.1792 20.4043C91.7156 19.407 93.3868 18.8679 95.1658 18.8679C97.969 18.8679 100.179 19.8113 101.823 21.7251C103.468 23.6388 104.276 26.2534 104.276 29.5687V30.9973H87.8073V31.4825C87.8073 34.097 88.562 36.2803 90.0445 38.0054C91.5539 39.7574 93.4407 40.6199 95.7049 40.6199C97.0795 40.6199 98.2655 40.3774 99.3167 39.8652C100.368 39.3801 101.311 38.5714 102.174 37.4663L103.764 38.6792C101.931 41.4016 99.2089 42.7763 95.624 42.7763ZM95.1658 21.0243C93.252 21.0243 91.6348 21.7251 90.314 23.1267C88.9933 24.5283 88.2116 26.4151 87.9151 28.7871H101.743V28.5175C101.662 26.3073 101.042 24.5013 99.8558 23.0997C98.6698 21.6981 97.1065 21.0243 95.1658 21.0243ZM111.823 40.1887H126.81V42.345H108.67V40.4582L122.659 21.4825H109.101V19.2722H125.867V21.186L111.823 40.1887ZM130.476 30.4582C130.476 28.248 130.907 26.2534 131.77 24.4744C132.632 22.6954 133.845 21.3208 135.408 20.3235C136.972 19.3261 138.751 18.841 140.745 18.841C143.818 18.841 146.298 19.9191 148.212 22.0755C150.125 24.2318 151.069 27.089 151.069 30.6469V31.186C151.069 33.4232 150.637 35.4178 149.775 37.1968C148.912 38.9757 147.699 40.3504 146.136 41.3208C144.573 42.2911 142.794 42.7763 140.799 42.7763C137.753 42.7763 135.247 41.6981 133.333 39.5418C131.419 37.3854 130.476 34.5283 130.476 30.9704V30.4582ZM133.036 31.159C133.036 33.9084 133.764 36.1725 135.166 37.9515C136.594 39.7305 138.454 40.593 140.772 40.593C143.063 40.593 144.95 39.7035 146.379 37.9515C147.807 36.1725 148.508 33.8545 148.508 30.9434V30.4582C148.508 28.7062 148.185 27.0889 147.538 25.6065C146.891 24.1509 145.974 23.0189 144.788 22.2102C143.602 21.4016 142.255 20.9973 140.745 20.9973C138.481 20.9973 136.621 21.8868 135.166 23.6658C133.737 25.4447 133.009 27.7898 133.009 30.6739L133.036 31.159ZM170.152 36.469C170.152 35.2022 169.64 34.1779 168.616 33.4232C167.592 32.6685 166.082 32.0485 164.007 31.6173C161.931 31.186 160.368 30.6739 159.236 30.1348C158.104 29.5687 157.268 28.8949 156.729 28.0863C156.19 27.2776 155.894 26.3073 155.894 25.1483C155.894 23.3154 156.648 21.8329 158.185 20.6469C159.694 19.4609 161.662 18.8679 164.034 18.8679C166.594 18.8679 168.67 19.5148 170.233 20.7817C171.796 22.0485 172.578 23.7197 172.578 25.7682H170.018C170.018 24.4205 169.451 23.2884 168.319 22.3989C167.187 21.5094 165.759 21.0512 164.034 21.0512C162.363 21.0512 161.015 21.4286 159.991 22.1563C158.966 22.9111 158.454 23.8814 158.454 25.0674C158.454 26.2264 158.885 27.1159 159.721 27.7359C160.557 28.3558 162.12 28.9488 164.357 29.4879C166.594 30.027 168.266 30.566 169.398 31.159C170.503 31.752 171.338 32.4798 171.877 33.3154C172.416 34.1509 172.686 35.1752 172.686 36.3612C172.686 38.3019 171.904 39.8652 170.341 41.0243C168.778 42.1833 166.729 42.7763 164.195 42.7763C161.5 42.7763 159.317 42.1294 157.673 40.8356C156.001 39.5418 155.166 37.8976 155.166 35.903H157.726C157.834 37.3854 158.454 38.5445 159.613 39.3801C160.772 40.2156 162.309 40.6199 164.222 40.6199C166.001 40.6199 167.43 40.2156 168.535 39.4609C169.613 38.6523 170.152 37.655 170.152 36.469ZM43.0634 44.0701C42.4434 33.0997 28.6429 28.1132 27.3221 27.6011C27.2682 27.5741 27.2682 27.5202 27.2952 27.4663L41.527 13.1806V11.6442C41.527 11.4016 41.3113 11.186 41.0687 11.186H14.8423V0L5.16578 2.02156V3.47709H5.70486C5.70486 3.47709 8.07683 3.47709 8.07683 5.84906V11.159H0.583568C0.448797 11.159 0.314026 11.2938 0.314026 11.4286V14.7978H8.10378V33.0997C8.10378 38.841 11.7965 42.8302 18.2655 42.2911C19.6402 42.1833 20.907 41.6442 21.9852 40.9434C22.4704 40.6199 22.7669 40.1078 22.7669 39.5148V37.7089C20.6644 39.1105 18.8855 39.0297 18.8855 39.0297C14.7884 39.0297 14.8693 33.8275 14.8693 33.8275V14.7978H33.7372L20.1523 28.4906C20.1253 30.2965 20.0984 31.6981 20.0984 31.7251C20.0984 31.779 20.1253 31.8059 20.1793 31.8059C32.6321 33.9084 36.0014 41.9677 36.0014 44.3127C36.0014 44.3127 37.3491 55.7143 25.9474 56.496C25.9474 56.496 18.4811 56.8194 17.1604 53.8275C17.1065 53.7197 17.1604 53.6119 17.2682 53.5579C18.5081 52.9919 19.3437 51.8868 19.3437 50.4043C19.3437 48.1941 17.996 46.3881 15.1658 46.3881C12.8747 46.3881 10.9879 48.1941 10.9879 50.4043C10.9879 50.4043 9.90971 60 25.9205 59.7305C44.1954 59.407 43.0634 44.0701 43.0634 44.0701Z" fill="white"/>
</g>
<defs>
<clipPath id="clip0_122_317">
<rect width="172.414" height="60" fill="white" transform="translate(0.293091)"/>
</clipPath>
</defs>
</svg>
