<svg viewBox="0 0 170 40" fill="none" xmlns="http://www.w3.org/2000/svg">
<path d="M36.7308 22.0248C36.7127 31.4294 29.6471 39.1296 20.6716 39.8912C20.6716 39.8912 9.14546 40.1874 5.32557 39.8489C4.62757 39.7635 3.96461 39.4948 3.40409 39.0702C2.84356 38.6455 2.40545 38.0801 2.13428 37.4312C2.66521 37.6895 3.23863 37.8493 3.82663 37.9027C5.07776 38.0115 7.21134 38.0659 10.185 38.0659C14.5549 38.0659 19.2935 37.945 19.3419 37.945H19.4265C24.1792 37.5375 28.5975 35.3327 31.7807 31.78C34.5054 28.765 36.2267 24.9782 36.7067 20.9429C36.7248 21.2874 36.7308 21.6561 36.7308 22.0248Z" fill="#3770FF"/>
<path d="M35.3225 18.1022C35.3225 27.5069 28.2388 35.201 19.2633 35.9505C19.2633 35.9505 7.73713 36.2527 3.91724 35.9143C1.86829 35.7329 0.33308 33.7686 0.290771 31.5988L0.327036 4.43043C0.387477 2.26059 1.92873 0.30229 3.98373 0.133055C7.80966 -0.187284 19.3298 0.169319 19.3298 0.169319C28.2992 0.967143 35.3225 8.69758 35.3225 18.1022Z" fill="#3770FF"/>
<path d="M46.9031 11.1273C46.9046 10.9964 46.9574 10.8712 47.05 10.7786C47.1426 10.686 47.2677 10.6333 47.3987 10.6317H55.4374C55.7094 10.6317 56.1566 10.6317 56.4286 10.6801C56.4286 10.6801 60.0974 11.0548 61.8079 11.8889C63.4572 12.6888 64.8404 13.9481 65.791 15.5154C66.7588 17.1619 67.2486 19.0456 67.2053 20.9551C67.2486 22.8645 66.7588 24.7482 65.791 26.3948C64.8404 27.9621 63.4572 29.2214 61.8079 30.0213C60.0974 30.8795 56.4286 31.2301 56.4286 31.2301C56.1566 31.2301 55.7094 31.2784 55.4374 31.2784H47.4108C47.2798 31.2769 47.1547 31.2242 47.0621 31.1315C46.9695 31.0389 46.9167 30.9138 46.9152 30.7828L46.9031 11.1273ZM55.2681 28.0448C55.5401 28.0448 55.9874 28.0448 56.2594 27.9965C57.4566 27.8899 58.6338 27.6215 59.7589 27.1987C60.8724 26.6559 61.7984 25.793 62.4183 24.7206C63.0558 23.5806 63.3771 22.2911 63.3491 20.9853C63.3771 19.6795 63.0558 18.39 62.4183 17.25C61.7981 16.1778 60.8722 15.315 59.7589 14.7719C58.6351 14.3246 57.4558 14.0318 56.2533 13.9016H51.2367C51.1058 13.9032 50.9806 13.9559 50.888 14.0485C50.7954 14.1411 50.7427 14.2663 50.7411 14.3972V27.5734C50.7427 27.7044 50.7954 27.8295 50.888 27.9221C50.9806 28.0147 51.1058 28.0674 51.2367 28.069L55.2681 28.0448ZM85.7245 24.092C85.7126 24.2257 85.6517 24.3502 85.5535 24.4417C85.4553 24.5332 85.3268 24.5851 85.1926 24.5876H73.8236C73.7659 24.5811 73.7076 24.5904 73.6549 24.6145C73.6021 24.6386 73.5569 24.6765 73.524 24.7243C73.4911 24.7721 73.4718 24.8279 73.4681 24.8858C73.4645 24.9437 73.4766 25.0015 73.5033 25.053C73.8281 25.9235 74.3493 26.7074 75.0264 27.3437C76.0203 28.048 77.2178 28.4069 78.4353 28.3652C80.1699 28.3652 82.3035 26.9327 82.3035 26.9327C82.4196 26.8643 82.5552 26.8367 82.6888 26.8542C82.8224 26.8718 82.9463 26.9334 83.0409 27.0294L84.3645 28.5525C84.4507 28.6536 84.495 28.7837 84.4883 28.9164C84.4815 29.049 84.4243 29.174 84.3283 29.2658C83.6338 29.8974 82.8496 30.4229 82.0013 30.8251C80.6714 31.3119 79.2578 31.5285 77.8432 31.4621C76.4286 31.3956 75.0415 31.0476 73.7631 30.4383C72.4907 29.7922 71.4311 28.7934 70.7109 27.5613C69.9828 26.2914 69.6111 24.8485 69.635 23.3848C69.6128 21.9348 69.9735 20.5046 70.6806 19.2386C71.3622 18.027 72.3692 17.0304 73.5879 16.3616C74.8736 15.6612 76.3186 15.3052 77.7825 15.328C79.22 15.3049 80.6387 15.6569 81.8985 16.3495C83.0965 17.0156 84.0798 18.0094 84.7332 19.2144C85.4312 20.5265 85.7808 21.9957 85.7486 23.4815C85.7486 23.7535 85.7245 24.092 85.7245 24.092ZM74.7846 19.3413C74.1767 20.0069 73.7209 20.7968 73.4489 21.6562C73.4272 21.7104 73.4197 21.7692 73.427 21.8271C73.4343 21.885 73.4562 21.9401 73.4906 21.9873C73.5251 22.0344 73.5709 22.072 73.6239 22.0966C73.6768 22.1211 73.7351 22.1318 73.7934 22.1276H81.7414C81.8009 22.1334 81.8608 22.1237 81.9153 22.0993C81.9699 22.0749 82.0172 22.0368 82.0525 21.9886C82.0879 21.9405 82.1101 21.884 82.117 21.8246C82.1239 21.7653 82.1153 21.7052 82.092 21.6502C81.8312 20.7991 81.3877 20.0152 80.7925 19.3534C79.9549 18.6311 78.8757 18.2512 77.7704 18.2896C76.6798 18.2622 75.6173 18.6365 74.7846 19.3413ZM103.258 15.5275C103.316 15.5186 103.374 15.5264 103.427 15.5499C103.48 15.5734 103.525 15.6116 103.557 15.66C103.589 15.7084 103.606 15.765 103.607 15.8229C103.608 15.8808 103.591 15.9377 103.561 15.9868L97.1962 30.8251C97.1318 30.9567 97.0334 31.0686 96.9112 31.1494C96.789 31.2302 96.6474 31.2768 96.5011 31.2845H93.6906C93.5443 31.2768 93.4028 31.2302 93.2806 31.1494C93.1584 31.0686 93.06 30.9567 92.9955 30.8251L86.625 15.9868C86.5942 15.9377 86.5782 15.8808 86.5788 15.8229C86.5794 15.765 86.5967 15.7084 86.6285 15.66C86.6604 15.6116 86.7054 15.5734 86.7584 15.5499C86.8114 15.5264 86.87 15.5186 86.9272 15.5275H89.768C89.9135 15.5349 90.0544 15.5816 90.1756 15.6624C90.2969 15.7433 90.3941 15.8553 90.457 15.9868L94.972 26.7574C95.0808 27.0113 95.256 27.0113 95.3648 26.7574L99.9946 15.9868C100.059 15.8553 100.157 15.7433 100.28 15.6626C100.402 15.5818 100.543 15.5352 100.69 15.5275H103.258ZM111.478 14.2219C111.391 14.5311 111.343 14.8498 111.333 15.1709C111.338 15.2986 111.393 15.4194 111.485 15.5075C111.578 15.5956 111.701 15.644 111.829 15.6423H115.171C115.302 15.6439 115.428 15.6966 115.52 15.7892C115.613 15.8818 115.665 16.007 115.667 16.1379V18.0962C115.665 18.2272 115.613 18.3523 115.52 18.4449C115.428 18.5375 115.302 18.5903 115.171 18.5918H111.944C111.813 18.5934 111.688 18.6461 111.595 18.7387C111.503 18.8313 111.45 18.9565 111.448 19.0875V30.7949C111.447 30.9259 111.394 31.051 111.301 31.1436C111.209 31.2362 111.084 31.289 110.953 31.2905H108.257C108.126 31.289 108.001 31.2362 107.908 31.1436C107.816 31.051 107.763 30.9259 107.761 30.7949V19.0935C107.76 18.9625 107.707 18.8374 107.614 18.7448C107.522 18.6522 107.397 18.5994 107.266 18.5979H105.664C105.533 18.5963 105.408 18.5436 105.315 18.451C105.223 18.3584 105.17 18.2332 105.168 18.1023V16.144C105.17 16.013 105.223 15.8879 105.315 15.7952C105.408 15.7026 105.533 15.6499 105.664 15.6483H107.248C107.379 15.6468 107.504 15.5941 107.596 15.5014C107.689 15.4088 107.742 15.2837 107.743 15.1527C107.747 14.8209 107.774 14.4898 107.822 14.1615C107.822 14.1615 108.233 11.629 109.218 10.6559C109.779 10.1458 110.436 9.75342 111.152 9.50217C111.867 9.25091 112.626 9.14586 113.382 9.19322C114.375 9.23494 115.352 9.4561 116.265 9.84599C116.388 9.90179 116.486 10.0017 116.538 10.126C116.591 10.2503 116.595 10.3898 116.549 10.5169L115.866 12.3301C115.846 12.3879 115.813 12.4407 115.77 12.4851C115.727 12.5295 115.676 12.5645 115.619 12.5878C115.562 12.6111 115.501 12.6223 115.44 12.6206C115.378 12.6189 115.318 12.6044 115.262 12.5779C114.765 12.3346 114.225 12.1889 113.672 12.1488C112.083 12.1609 111.478 14.2219 111.478 14.2219ZM120.678 30.4625C119.419 29.8075 118.372 28.8102 117.656 27.5855C116.927 26.3156 116.556 24.8726 116.58 23.409C116.554 21.9489 116.926 20.5094 117.656 19.2446C118.375 18.0256 119.422 17.033 120.678 16.3797C122.018 15.7 123.499 15.3458 125.002 15.3458C126.505 15.3458 127.987 15.7 129.327 16.3797C130.582 17.0335 131.629 18.026 132.349 19.2446C133.079 20.5094 133.451 21.9489 133.425 23.409C133.449 24.8726 133.077 26.3156 132.349 27.5855C131.632 28.8098 130.585 29.807 129.327 30.4625C127.987 31.1421 126.505 31.4963 125.002 31.4963C123.499 31.4963 122.018 31.1421 120.678 30.4625ZM128.354 26.9811C128.803 26.5052 129.153 25.9438 129.381 25.3301C129.61 24.7165 129.713 24.0631 129.683 23.409C129.712 22.7549 129.609 22.1017 129.381 21.4881C129.152 20.8745 128.803 20.313 128.354 19.8369C127.917 19.3893 127.393 19.0372 126.813 18.8031C126.234 18.569 125.612 18.4579 124.987 18.477C124.365 18.4575 123.746 18.5684 123.169 18.8026C122.592 19.0369 122.071 19.3892 121.639 19.8369C121.194 20.3154 120.849 20.8777 120.624 21.491C120.398 22.1043 120.298 22.7563 120.327 23.409C120.297 24.0617 120.398 24.7138 120.623 25.3271C120.848 25.9405 121.194 26.5028 121.639 26.9811C122.071 27.4291 122.592 27.7816 123.169 28.0159C123.745 28.2501 124.365 28.3609 124.987 28.341C125.611 28.3592 126.232 28.2477 126.81 28.0137C127.388 27.7796 127.912 27.428 128.348 26.9811H128.354ZM145.652 12.2939C145.437 12.0905 145.266 11.8455 145.149 11.5737C145.032 11.302 144.971 11.0092 144.971 10.7133C144.971 10.4174 145.032 10.1247 145.149 9.85293C145.266 9.58117 145.437 9.33613 145.652 9.13278C146.112 8.71988 146.715 8.50299 147.332 8.52837C147.951 8.50648 148.555 8.72281 149.019 9.13278C149.237 9.32096 149.411 9.55512 149.528 9.81846C149.645 10.0818 149.702 10.3678 149.695 10.6559C149.702 10.9599 149.647 11.262 149.533 11.5438C149.418 11.8255 149.247 12.0808 149.031 12.2939C148.808 12.5148 148.542 12.6878 148.25 12.8021C147.958 12.9164 147.646 12.9697 147.332 12.9587C146.706 12.9678 146.102 12.7287 145.652 12.2939ZM145.477 16.0231C145.478 15.8921 145.531 15.767 145.624 15.6744C145.716 15.5818 145.841 15.529 145.972 15.5275H148.668C148.799 15.529 148.924 15.5818 149.017 15.6744C149.109 15.767 149.162 15.8921 149.164 16.0231V30.7949C149.162 30.9259 149.109 31.051 149.017 31.1436C148.924 31.2362 148.799 31.289 148.668 31.2905H145.972C145.841 31.289 145.716 31.2362 145.624 31.1436C145.531 31.051 145.478 30.9259 145.477 30.7949V16.0231ZM156.779 30.4625C155.521 29.8075 154.473 28.8102 153.757 27.5855C153.029 26.3156 152.657 24.8726 152.681 23.409C152.664 21.9461 153.047 20.5063 153.787 19.2446C154.507 18.0256 155.554 17.033 156.809 16.3797C158.15 15.7 159.631 15.3458 161.134 15.3458C162.637 15.3458 164.118 15.7 165.459 16.3797C166.714 17.0335 167.761 18.026 168.481 19.2446C169.192 20.5148 169.545 21.954 169.502 23.409C169.526 24.8726 169.154 26.3156 168.426 27.5855C167.71 28.8098 166.662 29.807 165.404 30.4625C164.064 31.1421 162.582 31.4963 161.08 31.4963C159.577 31.4963 158.095 31.1421 156.755 30.4625H156.779ZM164.455 26.9811C164.905 26.5052 165.254 25.9438 165.483 25.3301C165.711 24.7165 165.814 24.0631 165.785 23.409C165.814 22.7549 165.711 22.1017 165.482 21.4881C165.254 20.8745 164.905 20.313 164.455 19.8369C164.019 19.3893 163.494 19.0372 162.915 18.8031C162.335 18.569 161.713 18.4579 161.089 18.477C160.466 18.4575 159.847 18.5684 159.271 18.8026C158.694 19.0369 158.173 19.3892 157.74 19.8369C157.295 20.3154 156.95 20.8777 156.725 21.491C156.5 22.1043 156.399 22.7563 156.429 23.409C156.399 24.0617 156.499 24.7138 156.725 25.3271C156.95 25.9405 157.295 26.5028 157.74 26.9811C158.172 27.4291 158.694 27.7816 159.27 28.0159C159.847 28.2501 160.466 28.3609 161.089 28.341C161.713 28.3601 162.335 28.249 162.915 28.0149C163.494 27.7808 164.019 27.4287 164.455 26.9811ZM136.942 9.88225C136.944 9.75129 136.997 9.62614 137.089 9.53353C137.182 9.44092 137.307 9.3882 137.438 9.38663H140.134C140.265 9.3882 140.39 9.44092 140.482 9.53353C140.575 9.62614 140.628 9.75129 140.629 9.88225V30.7949C140.628 30.9259 140.575 31.051 140.482 31.1436C140.39 31.2362 140.265 31.289 140.134 31.2905H137.468C137.337 31.289 137.212 31.2362 137.119 31.1436C137.027 31.051 136.974 30.9259 136.973 30.7949L136.942 9.88225Z" fill="white"/>
</svg>
