<svg viewBox="0 0 261 60" fill="none" xmlns="http://www.w3.org/2000/svg">
<path d="M69.3339 31.1972V46.7126C69.3208 47.6814 69.06 48.6308 68.5763 49.4702C68.0935 50.309 67.4018 51.0084 66.5685 51.5004L53.1291 59.243C52.296 59.7386 51.3446 60.0001 50.3753 60.0001C49.406 60.0001 48.4547 59.7386 47.6216 59.243L34.1821 51.5004C33.3489 51.0083 32.6572 50.3089 32.1744 49.4702C31.6907 48.6308 31.4299 47.6814 31.4168 46.7126V42.3641L38.2957 38.3641V45.9399L50.3413 52.9324L62.3792 45.9399V31.9926L50.3413 25.0004L22.1291 41.3414C21.2896 41.8183 20.3407 42.0689 19.3752 42.0689C18.4097 42.0689 17.4608 41.8183 16.6213 41.3414L3.18187 33.5686C2.36168 33.0714 1.68382 32.3707 1.21397 31.5345C0.744108 30.6984 0.498178 29.755 0.500002 28.7958V13.2806C0.504758 12.3128 0.76069 11.3627 1.24276 10.5235C1.72482 9.68418 2.41651 8.98442 3.25014 8.49265L16.6893 0.749979C17.5226 0.258959 18.4722 0 19.4393 0C20.4065 0 21.3561 0.258959 22.1893 0.749979L35.6288 8.49265C36.4623 8.98504 37.1543 9.68467 37.6376 10.5235C38.1208 11.3624 38.3789 12.312 38.3867 13.2801V17.6286L31.4624 21.5985V14.0758L19.4171 7.08331L7.37894 14.0756V28.0001L19.4168 34.9926L47.6517 18.6513C48.4913 18.1746 49.4402 17.9239 50.4056 17.9239C51.371 17.9239 52.3199 18.1746 53.1595 18.6513L66.5915 26.4244C67.4187 26.9175 68.1044 27.6161 68.5823 28.4522C69.0601 29.2884 69.3137 30.2339 69.3187 31.1969H69.3339V31.1972Z" fill="#7A53DD"/>
<path d="M93.2848 52.3566V40.2353C94.5954 41.8867 96.9816 42.811 99.7392 42.811C106.777 42.811 111.535 37.811 111.535 30.1897C111.535 22.5683 107.164 17.5683 100.323 17.5683C97.1634 17.5683 94.7392 18.7275 93.2771 20.5987V17.9094H86.5421V52.2809L93.2848 52.3566ZM98.9059 37.0081C95.2544 37.0081 92.8832 34.2883 92.8832 30.1897C92.8832 26.091 95.2544 23.3715 98.9059 23.3715C102.558 23.3715 104.876 26.0609 104.876 30.1897C104.876 34.3185 102.459 37.0081 98.9059 37.0081ZM126.863 42.8417C134.386 42.8417 139.742 37.4931 139.742 30.2203C139.742 22.9475 134.363 17.599 126.863 17.599C119.363 17.599 113.984 22.9019 113.984 30.2203C113.984 37.5385 119.333 42.8417 126.863 42.8417ZM126.863 37.0081C123.219 37.0081 120.742 34.243 120.742 30.1899C120.742 26.1369 123.226 23.3718 126.863 23.3718C130.499 23.3718 132.977 26.1371 132.977 30.1899C132.977 34.243 130.507 37.0081 126.863 37.0081ZM150.603 42.455V7.34888H143.868V42.455H150.603ZM170.88 17.9849L165.782 33.7577L160.638 17.9849H153.713L162.592 42.2275L159.017 52.3563H165.471L168.941 42.3638L177.827 17.9926L170.88 17.9849ZM196.778 20.4097C195.415 18.7126 192.99 17.599 190.028 17.599C182.892 17.599 178.574 22.5915 178.574 30.2203C178.574 37.8491 182.877 42.8417 190.127 42.8417C192.99 42.8417 195.566 41.7657 196.824 39.9702V43.1977C196.824 45.4705 195.309 47.0841 193.286 47.0841H182.021V52.387H194.354C199.884 52.387 203.574 49.0385 203.574 43.9401V17.9854H196.755L196.778 20.4097ZM191.195 37.0081C187.604 37.0081 185.225 34.3265 185.225 30.1899C185.225 26.0537 187.604 23.3718 191.195 23.3718C194.786 23.3718 197.21 26.0611 197.21 30.1899C197.21 34.3187 194.839 37.0081 191.195 37.0081ZM220.59 42.8417C228.113 42.8417 233.469 37.4931 233.469 30.2203C233.469 22.9475 228.09 17.599 220.59 17.599C213.09 17.599 207.711 22.9019 207.711 30.2203C207.711 37.5385 213.06 42.8417 220.59 42.8417ZM220.59 37.0081C216.946 37.0081 214.469 34.243 214.469 30.1899C214.469 26.1369 216.946 23.3718 220.59 23.3718C224.234 23.3718 226.704 26.1371 226.704 30.1899C226.704 34.243 224.227 37.0081 220.59 37.0081ZM243.983 42.4553V29.0537C243.983 25.8945 246.074 23.6142 249.037 23.6142C251.847 23.6142 253.741 25.7657 253.741 28.7126V42.4553H260.559V27.2051C260.559 21.5763 256.969 17.599 251.423 17.599C248.074 17.599 245.362 19.0006 243.999 21.387V18.0155H237.181L237.18 42.4854L243.983 42.4553Z" fill="white"/>
</svg>
